<?xml version="1.0" encoding="utf-8"?>
<!-- Generator: Adobe Illustrator 24.2.0, SVG Export Plug-In . SVG Version: 6.00 Build 0)  -->
<svg version="1.1" id="logo_xA0_影像_1_" xmlns="http://www.w3.org/2000/svg" xmlns:xlink="http://www.w3.org/1999/xlink" x="0px"
	 y="0px" width="378.9px" height="90px" viewBox="0 0 378.9 90" style="enable-background:new 0 0 378.9 90;" xml:space="preserve">
<style type="text/css">
	.st0{fill:#182987;}
	.st1{fill:#00993E;}
	.st2{fill:#1B913D;}
	.st3{fill:#2CA6E0;}
	.st4{fill:#231815;}
</style>
<g>
	<g>
		<path class="st0" d="M145.2,9h-13h-6.8L99.9,31.9V9h-0.4H85.2h-0.4V81h0.4h14.2h0.4V50.7L127.5,81h4.7h14.9h0.2V9H145.2z
			 M132.2,20.4v17H113L132.2,20.4z M118.4,50.3h13.8V65L118.4,50.3z"/>
		<rect x="87.3" y="47.7" class="st1" width="12.6" height="33.3"/>
		<rect x="90.5" y="80.6" class="st2" width="0.6" height="0.4"/>
		<g>
			<path class="st3" d="M132.4,81h-18.1L88.4,52.6V81H75.2V14.4h13.2V36l23.9-21.6h18.3L97.6,43.6L132.4,81z"/>
		</g>
	</g>
	<g>
		<g>
			<path class="st4" d="M186.3,54.1h3.4V56h9.9v3.2H179V68c0,2.5-0.2,4.9-0.6,7.2c-0.3,1.9-0.8,3.8-1.6,5.7l-3.3-2
				c0.8-2.4,1.3-4.4,1.5-6.2c0.3-2.1,0.5-4.3,0.5-6.4V56h10.7V54.1z M180.9,60.6h6.5v-0.8h3.3v0.8h7.1v4h2.4v3h-2.4v3.8h-1.5
				l2.3,1.9c-0.7,0.6-1.6,1.1-2.6,1.7c-0.3,0.2-0.6,0.3-0.9,0.4c1.5,0.9,3.2,1.7,5.1,2.2l-1.6,3.1c-1.7-0.6-3.4-1.4-5-2.5
				c-1-0.6-1.9-1.4-2.9-2.3v1.2c0,1.5-0.3,2.5-0.9,3c-0.6,0.6-1.7,0.8-3.3,0.8c-0.8,0-1.5-0.2-2.2-0.5l-0.5-2.9
				c-1.4,0.7-2.8,1.3-4,1.8l-1.4-2.9c1.7-0.5,3.1-1,4.4-1.6c-1.1-0.9-2.3-1.6-3.5-2.2l1.5-1.8v-2.3h6.5v-1h-7.7v-3h7.7v-1h-6.5V60.6
				z M183.2,74.7c1.2-0.5,2.3-1.1,3.1-1.6l0.5,2.9c-0.9,0.5-1.8,1-2.7,1.4c0.8,0.3,1.6,0.5,2.4,0.5c0.5,0,0.8-0.5,0.8-1.4v-5.2h-4.7
				c0.9,0.4,1.7,0.8,2.4,1.3L183.2,74.7z M190.7,63.5v1h3.7v-1H190.7z M190.7,67.5v1h3.7v-1H190.7z M190.7,71.9c0.5,0.5,1,1,1.5,1.4
				c0.5-0.2,1-0.5,1.6-0.8c0.7-0.4,1.2-0.8,1.7-1.2h-4.8V71.9z"/>
			<path class="st4" d="M203.9,66.4l2.5,0.6c-0.2,2.8-0.7,5.5-1.5,7.9l-2.7-1.4C203.2,71.1,203.7,68.7,203.9,66.4z M204.3,56.7h4V54
				h3.3v2.7h3.8v3.1h-3.8v2.1h4.5V65h-2.8v2.1l2.4-0.6c0.2,1.1,0.4,2.2,0.6,3.3c0.2-1,0.3-2,0.4-3.1l2.5,0.6c-0.3,3.1-0.9,6-1.9,8.7
				l-2.4-1.2c0.2-0.6,0.4-1.2,0.6-1.8l-1.4,0.4c-0.2-2.1-0.4-4-0.8-5.8v8.8c0,1.6-0.2,2.7-0.6,3.3c-0.5,0.7-1.3,1-2.6,1
				c-0.6,0-1.1-0.1-1.5-0.2l-0.6-3.1c-0.5,1.4-1,2.5-1.6,3.5l-2.7-2.1c1-1.6,1.8-3.4,2.3-5.4c0.4-1.9,0.7-3.9,0.7-6V65h-3.2v-3.1
				h4.7v-2.1h-4V56.7z M208.2,77.2c0.5,0.2,1,0.3,1.5,0.3c0.2,0,0.4-0.1,0.5-0.3c0.1-0.3,0.1-0.8,0.1-1.5V65h-0.5v2.3
				c0,2.9-0.3,5.6-1,8.1C208.6,76,208.4,76.6,208.2,77.2z M217.3,56.7h4.1v-2.5h3.4v2.5h4.1v3.1h-4.1v2.1h5V65h-3.4v11.4
				c0,1.6-0.2,2.7-0.6,3.3c-0.5,0.7-1.3,1-2.5,1c-0.7,0-1.3,0-1.9-0.1l-0.5-3.2c-0.6,1.4-1.3,2.7-2,3.6l-2.6-2.1
				c1.2-1.6,2.1-3.5,2.6-5.5c0.6-2,0.8-4.1,0.8-6.2V65h-3v-3.1h4.7v-2.1h-4.1V56.7z M221,77.3c0.6,0.1,1.2,0.2,1.8,0.2
				c0.2,0,0.3-0.1,0.4-0.3c0.1-0.3,0.1-0.8,0.1-1.5V65h-0.6v2.3c0,3-0.4,5.7-1.2,8.2C221.4,76.1,221.2,76.7,221,77.3z M229.1,66.7
				c0.6,2.6,1,5.4,1.3,8.5l-3,0.9c-0.2-3.2-0.5-6.1-0.8-8.7L229.1,66.7z"/>
			<path class="st4" d="M258.6,54.4v26.4h-3.2v-0.8h-18.7v0.8h-3.2V54.4H258.6z M236.6,76.8h10.2l-1.5-2.2c0.3-0.2,0.6-0.5,0.9-0.7
				c-2.6,0.5-5.3,0.9-8.3,1.3l-0.5-3c3.5-0.3,6.6-0.7,9.2-1l0.2,2.2c0.6-0.6,1.2-1.2,1.6-1.9c-0.2-0.6-0.4-1.2-0.6-1.8
				c-0.5-1.7-0.9-3.9-1.1-6.6h-9.5v-2.9h9.3c0-0.7-0.1-1.4-0.1-2.2h2.9c0,0.8,0,1.5,0.1,2.2h1.8c-0.4-0.4-0.8-0.8-1.3-1.2l1.5-1.5
				h-14.9V76.8z M237.9,63.8h8.4v6.7h-8.4V63.8z M240.8,67.9h2.7v-1.4h-2.7V67.9z M247.5,76.8h7.9v-3.1c-0.3,1.1-0.6,1.8-1,2.2
				c-0.4,0.4-1,0.5-1.7,0.5c-0.8,0-1.6-0.5-2.4-1.4c-0.1-0.2-0.3-0.3-0.4-0.5C249.2,75.3,248.4,76.1,247.5,76.8z M252.8,57.5
				c0.6,0.4,1.2,0.9,1.7,1.4l-1,1.3h1.5V63h-5.4c0.2,2.2,0.4,3.8,0.6,4.8c0,0.2,0.1,0.3,0.1,0.3c0.6-1.3,1.1-2.7,1.5-4.4l2.8,1.1
				c-0.8,2.9-1.8,5.3-2.9,7.1c0,0,0,0,0,0.1c0.4,0.8,0.8,1.3,1,1.3c0.1,0,0.1-0.1,0.2-0.2c0.1-0.3,0.1-1.1,0.1-2.3l2.4,0.7v-14
				H252.8z"/>
			<path class="st4" d="M274.4,54.2l3,0.7c-0.1,0.2-0.2,0.4-0.3,0.5h4.3V57c0.7,1.6,1.5,2.9,2.4,4.1c0.5-0.8,0.9-1.7,1.3-2.7h-2.4
				v-3h6v2.4c-0.8,2.1-1.7,3.8-2.7,5.3c1,0.8,2.1,1.4,3.2,1.9l-1.5,3.1c-1-0.4-2-1-2.9-1.7v1.2h-9.3v-1c-0.9,0.7-1.9,1.3-3,1.8
				l-1.3-2.8c0.7-0.4,1.4-0.8,2-1.2c-0.5-0.5-0.9-0.9-1.4-1.2l1.9-2c0.6,0.4,1.2,0.8,1.7,1.3c0.1-0.1,0.3-0.3,0.4-0.4
				c-0.5-0.5-1-1-1.5-1.3l2-2c0.5,0.3,0.9,0.6,1.2,0.9c0.2-0.4,0.4-0.9,0.6-1.3h-2.6c-0.1,0.2-0.2,0.3-0.3,0.4
				c-0.9,1.2-1.9,2.3-3.1,3.1l-1.6-1.7l-1.2,3.3c0.8,1.1,1.4,2.2,1.8,3.3c0.6,1.4,0.8,2.8,0.8,4.1c0,3.2-1.4,4.9-4,4.9h-1.3
				l-0.6-2.7v7.7h-3.3V54.6h9.7l-1.6,4.7c0.8-0.7,1.4-1.4,1.9-2.1C273.4,56.2,274,55.2,274.4,54.2z M266.1,63.7l1.8-5.8h-1.8V63.7z
				 M266.1,72.1c0.8,0.2,1.4,0.3,1.9,0.3c0.4,0,0.6-0.5,0.7-1.5c0-1-0.2-2-0.6-3.1c-0.4-1-1-2.1-2-3.2V72.1z M274.6,73l2.3,2
				c-0.7,0.8-1.5,1.6-2.4,2.5c-1.1,0.8-2,1.4-2.9,1.8l-1.8-2.9c0.7-0.3,1.6-0.8,2.5-1.4C273.3,74.2,274,73.6,274.6,73z M272.8,69
				h14.7v3h-5.8v4.9c0,1.6-0.3,2.7-0.9,3.1c-0.6,0.6-1.6,0.9-3.1,0.9c-0.6,0-1.2-0.1-1.8-0.3l-0.5-3.4c0.8,0.4,1.5,0.5,2.3,0.5
				c0.4,0,0.5-0.5,0.5-1.4v-4.4h-5.4V69z M277.7,64.8h5.1c-0.2-0.2-0.3-0.3-0.4-0.5c-0.8-0.8-1.5-1.9-2.1-3.1
				c-0.6,1.2-1.3,2.2-2.2,3.1C278,64.5,277.9,64.6,277.7,64.8z M284.6,73.1c0.7,0.9,1.4,1.6,2.2,2.3c0.7,0.6,1.4,1.2,2.1,1.6
				l-2.2,2.8c-0.8-0.5-1.5-1.1-2.2-1.8c-0.8-0.8-1.6-1.8-2.3-2.8L284.6,73.1z"/>
		</g>
		<g>
			<path class="st4" d="M159.6,22.7h6.8V31l7.1-8.3h9l-8,8.3l8.3,13.6h-8.3l-4.6-9l-3.5,3.7v5.3h-6.8V22.7z"/>
			<path class="st4" d="M198.5,41h-7.7l-1.1,3.6h-6.9l8.2-21.9h7.4l8.2,21.9h-7.1L198.5,41z M197.1,36.2l-2.4-7.9l-2.4,7.9H197.1z"
				/>
			<path class="st4" d="M208.9,22.7h6.3l8.2,12.1V22.7h6.4v21.9h-6.4l-8.2-12v12h-6.4V22.7z"/>
			<path class="st4" d="M245.3,36.7v-4.6h10.4v9.3c-2,1.4-3.8,2.3-5.3,2.8c-1.5,0.5-3.4,0.7-5.5,0.7c-2.6,0-4.7-0.4-6.4-1.3
				c-1.6-0.9-2.9-2.2-3.8-4c-0.9-1.8-1.4-3.8-1.4-6c0-2.4,0.5-4.5,1.5-6.2c1-1.8,2.4-3.1,4.3-4c1.5-0.7,3.5-1.1,6-1.1
				c2.4,0,4.2,0.2,5.4,0.7c1.2,0.4,2.2,1.1,3,2c0.8,0.9,1.4,2.1,1.8,3.5l-6.5,1.2c-0.3-0.8-0.7-1.5-1.4-1.9
				c-0.6-0.4-1.5-0.7-2.5-0.7c-1.5,0-2.7,0.5-3.5,1.5c-0.9,1-1.3,2.7-1.3,4.9c0,2.4,0.4,4.1,1.3,5.1c0.9,1,2.1,1.5,3.7,1.5
				c0.8,0,1.5-0.1,2.2-0.3c0.7-0.2,1.5-0.6,2.4-1.1v-2.1H245.3z"/>
			<path class="st4" d="M259.8,22.7h6.8v7.7h7.4v-7.7h6.8v21.9h-6.8v-8.9h-7.4v8.9h-6.8V22.7z"/>
			<path class="st4" d="M285.2,22.7h18.1v4.7H292v3.5h10.5v4.5H292v4.3h11.7v5h-18.4V22.7z"/>
		</g>
	</g>
</g>
</svg>
